<svg width="318" height="138" viewBox="0 0 318 138" fill="none" xmlns="http://www.w3.org/2000/svg">
<path d="M35.88 91L15.816 26.68H10.92V19H31.272V26.68H24.648L41.928 82.264L59.304 26.68H52.68V19H73.032V26.68H68.136L48.072 91H35.88ZM81.6263 83.32H89.3063V26.68H81.6263V19H105.818V26.68H98.1383V83.32H105.818V91H81.6263V83.32ZM163.764 91L135.732 29.944V83.32H142.452V91H120.18V83.32H126.9V26.68H120.18V19H140.148L168.18 80.152V26.68H161.46V19H183.732V26.68H177.012V91H163.764ZM211.814 82.744H228.422L234.566 76.504V68.344H242.246V80.44L232.262 91H208.07L198.086 80.44V29.56L208.07 19H232.262L242.246 29.56V41.656H234.566V33.496L228.518 27.256H211.91L206.918 32.344V77.656L211.814 82.744ZM255.649 19H301.345V37.816H293.665V26.68H271.201V51.16H293.665V58.84H271.201V83.32H293.665V72.184H301.345V91H255.649V83.32H262.369V26.68H255.649V19Z" fill="#ECDFCC"/>
<path d="M11.32 123V98.616L10.84 94.728H32.104C34.152 94.728 35.752 95 36.904 95.544C38.088 96.088 38.952 96.808 39.496 97.704C40.072 98.568 40.44 99.496 40.6 100.488C40.76 101.48 40.84 102.424 40.84 103.32V106.152C40.84 106.888 40.728 107.72 40.504 108.648C40.28 109.544 39.864 110.424 39.256 111.288C38.648 112.12 37.768 112.824 36.616 113.4C35.464 113.944 33.96 114.216 32.104 114.216H27.208C25.192 114.216 23.304 114.168 21.544 114.072C19.816 113.976 18.52 113.896 17.656 113.832V123H11.32ZM17.656 109.608H30.712C32.152 109.608 33.144 109.256 33.688 108.552C34.232 107.848 34.504 107 34.504 106.008V102.984C34.504 101.96 34.232 101.096 33.688 100.392C33.144 99.688 32.168 99.336 30.76 99.336H17.656V109.608ZM55.8471 123C53.6071 123 51.8471 122.68 50.5671 122.04C49.2871 121.4 48.3751 120.44 47.8311 119.16C47.3191 117.88 47.0631 116.296 47.0631 114.408V103.32C47.0631 101.464 47.3191 99.912 47.8311 98.664C48.3431 97.384 49.2391 96.424 50.5191 95.784C51.7991 95.112 53.5751 94.776 55.8471 94.776H69.8631C72.1031 94.776 73.8471 95.112 75.0951 95.784C76.3751 96.424 77.2711 97.384 77.7831 98.664C78.3271 99.912 78.5991 101.464 78.5991 103.32V114.408C78.5991 117.224 77.9751 119.368 76.7271 120.84C75.4791 122.28 73.1911 123 69.8631 123H55.8471ZM57.2391 118.392H68.5191C69.7031 118.392 70.6151 118.088 71.2551 117.48C71.9271 116.872 72.2631 116.04 72.2631 114.984V102.744C72.2631 101.816 71.9271 101.032 71.2551 100.392C70.5831 99.72 69.6711 99.384 68.5191 99.384H57.2391C56.0871 99.384 55.1591 99.688 54.4551 100.296C53.7511 100.904 53.3991 101.72 53.3991 102.744V114.984C53.3991 116.072 53.7351 116.92 54.4071 117.528C55.1111 118.104 56.0551 118.392 57.2391 118.392ZM116.465 123.48C115.185 123.48 113.921 123.288 112.673 122.904C111.457 122.488 110.065 121.496 108.497 119.928L105.041 116.472C103.633 115.032 102.081 113.976 100.385 113.304C98.7211 112.632 96.6251 112.296 94.0971 112.296H92.6091V123H86.2731V98.616L85.7931 94.728H107.057C109.105 94.728 110.705 95 111.857 95.544C113.041 96.088 113.905 96.808 114.449 97.704C115.025 98.568 115.393 99.496 115.553 100.488C115.713 101.48 115.793 102.424 115.793 103.32V104.232C115.793 104.936 115.697 105.72 115.505 106.584C115.313 107.448 114.945 108.296 114.401 109.128C113.857 109.96 113.073 110.664 112.049 111.24C111.057 111.816 109.745 112.152 108.113 112.248C108.529 112.472 109.057 112.824 109.697 113.304C110.337 113.752 110.993 114.248 111.665 114.792C112.369 115.336 113.009 115.832 113.585 116.28C114.161 116.728 114.609 117.048 114.929 117.24C116.081 117.912 117.105 118.376 118.001 118.632C118.897 118.888 119.633 119.032 120.209 119.064C120.785 119.096 121.121 119.112 121.217 119.112L120.257 123C119.969 123.096 119.489 123.192 118.817 123.288C118.145 123.416 117.361 123.48 116.465 123.48ZM99.8091 107.928C101.025 107.928 102.113 107.912 103.073 107.88C104.033 107.816 104.897 107.752 105.665 107.688C107.073 107.528 108.049 107.144 108.593 106.536C109.169 105.896 109.457 105.08 109.457 104.088V102.984C109.457 101.96 109.185 101.096 108.641 100.392C108.097 99.688 107.121 99.336 105.713 99.336H92.6091V107.688C94.0171 107.784 95.3131 107.848 96.4971 107.88C97.6811 107.912 98.7851 107.928 99.8091 107.928ZM133.269 123L133.221 99.336H120.741V94.728H152.133V99.336H139.605V123H133.269ZM157.429 123V98.616L156.949 94.776H186.901V99.384H163.765V106.392H181.717V111.144H163.765V123H157.429ZM199.988 123C197.748 123 195.988 122.68 194.708 122.04C193.428 121.4 192.516 120.44 191.972 119.16C191.46 117.88 191.204 116.296 191.204 114.408V103.32C191.204 101.464 191.46 99.912 191.972 98.664C192.484 97.384 193.38 96.424 194.66 95.784C195.94 95.112 197.716 94.776 199.988 94.776H214.004C216.244 94.776 217.988 95.112 219.236 95.784C220.516 96.424 221.412 97.384 221.924 98.664C222.468 99.912 222.74 101.464 222.74 103.32V114.408C222.74 117.224 222.116 119.368 220.868 120.84C219.62 122.28 217.332 123 214.004 123H199.988ZM201.38 118.392H212.66C213.844 118.392 214.756 118.088 215.396 117.48C216.068 116.872 216.404 116.04 216.404 114.984V102.744C216.404 101.816 216.068 101.032 215.396 100.392C214.724 99.72 213.812 99.384 212.66 99.384H201.38C200.228 99.384 199.3 99.688 198.596 100.296C197.892 100.904 197.54 101.72 197.54 102.744V114.984C197.54 116.072 197.876 116.92 198.548 117.528C199.252 118.104 200.196 118.392 201.38 118.392ZM229.934 123L230.414 119.16V94.776H236.75V118.392H256.622L258.542 122.472C258.542 122.6 258.11 122.728 257.246 122.856C256.382 122.952 254.894 123 252.782 123H229.934ZM262.84 123V94.776H269.176V123H262.84ZM285.16 123C282.92 123 281.16 122.68 279.88 122.04C278.6 121.4 277.688 120.44 277.144 119.16C276.632 117.88 276.376 116.296 276.376 114.408V103.32C276.376 101.464 276.632 99.912 277.144 98.664C277.656 97.384 278.552 96.424 279.832 95.784C281.112 95.112 282.888 94.776 285.16 94.776H299.176C301.416 94.776 303.16 95.112 304.408 95.784C305.688 96.424 306.584 97.384 307.096 98.664C307.64 99.912 307.912 101.464 307.912 103.32V114.408C307.912 117.224 307.288 119.368 306.04 120.84C304.792 122.28 302.504 123 299.176 123H285.16ZM286.552 118.392H297.832C299.016 118.392 299.928 118.088 300.568 117.48C301.24 116.872 301.576 116.04 301.576 114.984V102.744C301.576 101.816 301.24 101.032 300.568 100.392C299.896 99.72 298.984 99.384 297.832 99.384H286.552C285.4 99.384 284.472 99.688 283.768 100.296C283.064 100.904 282.712 101.72 282.712 102.744V114.984C282.712 116.072 283.048 116.92 283.72 117.528C284.424 118.104 285.368 118.392 286.552 118.392Z" fill="#ECDFCC"/>
</svg>
